<?xml version="1.0" encoding="utf-8"?>
<!-- Generator: Adobe Illustrator 16.0.0, SVG Export Plug-In . SVG Version: 6.00 Build 0)  -->
<!DOCTYPE svg PUBLIC "-//W3C//DTD SVG 1.1//EN" "http://www.w3.org/Graphics/SVG/1.1/DTD/svg11.dtd">
<svg version="1.1" id="Layer_1" xmlns="http://www.w3.org/2000/svg" xmlns:xlink="http://www.w3.org/1999/xlink" x="0px" y="0px"
	 width="170.08px" height="170.08px" viewBox="0 0 170.08 170.08" enable-background="new 0 0 170.08 170.08" xml:space="preserve">
<rect x="0.002" fill="#CF0039" width="170.078" height="170.079"/>
<g>
	<path fill="#FFFFFF" d="M107.299,128.32l-6.796-19.275H68.871l-6.797,19.275H43.539l33.117-86.494h16.804l32.868,86.494H107.299z
		 M89.012,76.918c-1.729-5.065-3.46-10.255-4.326-13.468c-0.864,3.213-2.593,8.403-4.325,13.468L74.8,92.61h19.772L89.012,76.918z"
		/>
</g>
<path fill="#F18A00" d="M39.957,87.465c-0.407,1.212-1.72,1.865-2.933,1.458l-24.121-8.095c-1.212-0.407-1.867-1.72-1.459-2.933
	l2.006-5.977c0.407-1.212,1.721-1.865,2.934-1.459l24.121,8.097c1.213,0.407,1.868,1.72,1.46,2.932L39.957,87.465z"/>
<path fill="#F18A00" d="M38.641,106.403c0.407,1.212-0.248,2.526-1.462,2.932l-17.181,6.099c-1.214,0.407-2.525-0.248-2.932-1.461
	l-2.001-5.977c-0.406-1.213,0.248-2.526,1.462-2.932l17.182-6.1c1.213-0.406,2.525,0.248,2.932,1.46L38.641,106.403z"/>
<path fill="#F18A00" d="M33.912,51.247c-1.013,0.781-1.198,2.236-0.415,3.25l10.888,14.624c0.783,1.011,2.236,1.198,3.25,0.416
	l4.987-3.854c1.013-0.784,1.199-2.238,0.417-3.25L42.148,47.808c-0.782-1.013-2.236-1.199-3.25-0.417L33.912,51.247z"/>
<path fill="#F18A00" d="M129.734,87.465c0.407,1.212,1.721,1.865,2.934,1.458l24.122-8.095c1.212-0.407,1.867-1.72,1.459-2.933
	l-2.006-5.977c-0.408-1.212-1.721-1.865-2.934-1.459l-24.121,8.097c-1.213,0.407-1.867,1.72-1.461,2.932L129.734,87.465z"/>
<path fill="#F18A00" d="M131.051,106.403c-0.407,1.212,0.247,2.526,1.462,2.932l17.182,6.099c1.214,0.407,2.526-0.248,2.932-1.461
	l2.002-5.977c0.406-1.213-0.248-2.526-1.462-2.932l-17.182-6.1c-1.213-0.406-2.527,0.248-2.933,1.46L131.051,106.403z"/>
<path fill="#F18A00" d="M135.781,51.247c1.011,0.781,1.198,2.236,0.414,3.25l-10.89,14.624c-0.783,1.011-2.234,1.198-3.249,0.416
	l-4.986-3.854c-1.013-0.784-1.199-2.238-0.415-3.25l10.889-14.625c0.781-1.013,2.237-1.199,3.249-0.417L135.781,51.247z"/>
</svg>
